# xmcd
#
# Track frame offsets:
#	150
#	15295
#	25965
#	37779
#	51842
#	73344
#	84927
#	96276
#	109735
#	122268
#	135929
#	154135
#	165934
#	188507
#	203369
#	216626
#	233842
#	250491
#	263096
#	280360
#
# Disc length: 3965 seconds
#
# Revision: 0
# Processed by: cddbd v1.5.2PL0 Copyright (c) Steve Scherf et al.
# Submitted via: audiograbber 1.83.01
#
DISCID=020f7b14
DTITLE=Ray Price - The Essential Ray Price [CD2]
DYEAR=2007
DGENRE=Country
TTITLE0=San Antonio Rose
TTITLE1=I've Just Destroyed the World (I'm Living In)
TTITLE2=Pride
TTITLE3=Walk Me to the Door
TTITLE4=Night Life
TTITLE5=Make the World Go Away
TTITLE6=Burning Memories
TTITLE7=The Other Woman
TTITLE8=Don't You Ever Get Tired of Hurting Me
TTITLE9=A Way to Survive
TTITLE10=I'm Still Not Over You
TTITLE11=I Let My Mind Wander
TTITLE12=Danny Boy
TTITLE13=She Wears My Ring
TTITLE14=You Wouldn't Know Love
TTITLE15=For the Good Times
TTITLE16=I Won't Mention It Again
TTITLE17=I'd Rather Be Sorry
TTITLE18=You're the Best Thing That Ever Happened To Me
TTITLE19=Faded Love (with Willie Nelson)
EXTD=
EXTT0=
EXTT1=
EXTT2=
EXTT3=
EXTT4=
EXTT5=
EXTT6=
EXTT7=
EXTT8=
EXTT9=
EXTT10=
EXTT11=
EXTT12=
EXTT13=
EXTT14=
EXTT15=
EXTT16=
EXTT17=
EXTT18=
EXTT19=
PLAYORDER=
